<svg width="24" height="24" viewBox="0 0 24 24" fill="none" xmlns="http://www.w3.org/2000/svg">
<mask id="path-1-inside-1_3_10" fill="white">
<path d="M24 12C24 9.62662 23.2962 7.30655 21.9776 5.33316C20.6591 3.35977 18.7849 1.8217 16.5922 0.913446C14.3995 0.005194 11.9867 -0.232446 9.65892 0.230577C7.33114 0.693599 5.19295 1.83649 3.51472 3.51472C1.83649 5.19295 0.693599 7.33114 0.230577 9.65892C-0.232446 11.9867 0.00519403 14.3995 0.913446 16.5922C1.8217 18.7849 3.35977 20.6591 5.33316 21.9776C7.30655 23.2962 9.62662 24 12 24L12 21C10.22 21 8.47991 20.4722 6.99987 19.4832C5.51983 18.4943 4.36627 17.0887 3.68508 15.4442C3.0039 13.7996 2.82567 11.99 3.17293 10.2442C3.5202 8.49836 4.37737 6.89471 5.63604 5.63604C6.89471 4.37737 8.49836 3.5202 10.2442 3.17293C11.99 2.82567 13.7996 3.0039 15.4442 3.68508C17.0887 4.36627 18.4943 5.51983 19.4832 6.99987C20.4722 8.47991 21 10.22 21 12H24Z"/>
</mask>
<path d="M24 12C24 9.62662 23.2962 7.30655 21.9776 5.33316C20.6591 3.35977 18.7849 1.8217 16.5922 0.913446C14.3995 0.005194 11.9867 -0.232446 9.65892 0.230577C7.33114 0.693599 5.19295 1.83649 3.51472 3.51472C1.83649 5.19295 0.693599 7.33114 0.230577 9.65892C-0.232446 11.9867 0.00519403 14.3995 0.913446 16.5922C1.8217 18.7849 3.35977 20.6591 5.33316 21.9776C7.30655 23.2962 9.62662 24 12 24L12 21C10.22 21 8.47991 20.4722 6.99987 19.4832C5.51983 18.4943 4.36627 17.0887 3.68508 15.4442C3.0039 13.7996 2.82567 11.99 3.17293 10.2442C3.5202 8.49836 4.37737 6.89471 5.63604 5.63604C6.89471 4.37737 8.49836 3.5202 10.2442 3.17293C11.99 2.82567 13.7996 3.0039 15.4442 3.68508C17.0887 4.36627 18.4943 5.51983 19.4832 6.99987C20.4722 8.47991 21 10.22 21 12H24Z" stroke="#FAA264" stroke-width="4" stroke-linejoin="round" mask="url(#path-1-inside-1_3_10)"/>
<mask id="path-2-inside-2_3_10" fill="white">
<path d="M19.6364 12C19.6364 10.4897 19.1885 9.01326 18.3494 7.75746C17.5103 6.50167 16.3177 5.5229 14.9223 4.94492C13.5269 4.36694 11.9915 4.21572 10.5102 4.51037C9.02891 4.80502 7.66824 5.53231 6.60028 6.60028C5.53231 7.66824 4.80502 9.02891 4.51037 10.5102C4.21572 11.9915 4.36694 13.5269 4.94492 14.9223C5.5229 16.3177 6.50167 17.5103 7.75746 18.3494C9.01326 19.1885 10.4897 19.6364 12 19.6364L12 16.9636C11.0183 16.9636 10.0586 16.6725 9.24235 16.1271C8.42609 15.5817 7.78988 14.8065 7.4142 13.8995C7.03851 12.9925 6.94022 11.9945 7.13174 11.0316C7.32326 10.0688 7.796 9.18436 8.49018 8.49018C9.18436 7.796 10.0688 7.32326 11.0316 7.13174C11.9945 6.94022 12.9925 7.03851 13.8995 7.4142C14.8065 7.78988 15.5817 8.42609 16.1271 9.24235C16.6725 10.0586 16.9636 11.0183 16.9636 12H19.6364Z"/>
</mask>
<path d="M19.6364 12C19.6364 10.4897 19.1885 9.01326 18.3494 7.75746C17.5103 6.50167 16.3177 5.5229 14.9223 4.94492C13.5269 4.36694 11.9915 4.21572 10.5102 4.51037C9.02891 4.80502 7.66824 5.53231 6.60028 6.60028C5.53231 7.66824 4.80502 9.02891 4.51037 10.5102C4.21572 11.9915 4.36694 13.5269 4.94492 14.9223C5.5229 16.3177 6.50167 17.5103 7.75746 18.3494C9.01326 19.1885 10.4897 19.6364 12 19.6364L12 16.9636C11.0183 16.9636 10.0586 16.6725 9.24235 16.1271C8.42609 15.5817 7.78988 14.8065 7.4142 13.8995C7.03851 12.9925 6.94022 11.9945 7.13174 11.0316C7.32326 10.0688 7.796 9.18436 8.49018 8.49018C9.18436 7.796 10.0688 7.32326 11.0316 7.13174C11.9945 6.94022 12.9925 7.03851 13.8995 7.4142C14.8065 7.78988 15.5817 8.42609 16.1271 9.24235C16.6725 10.0586 16.9636 11.0183 16.9636 12H19.6364Z" stroke="#FAA264" stroke-width="4" stroke-linejoin="round" mask="url(#path-2-inside-2_3_10)"/>
<mask id="path-3-inside-3_3_10" fill="white">
<path d="M15.2727 12C15.2727 11.3527 15.0808 10.72 14.7212 10.1818C14.3616 9.64357 13.8504 9.2241 13.2524 8.97639C12.6544 8.72869 11.9964 8.66388 11.3615 8.79016C10.7267 8.91644 10.1435 9.22813 9.68583 9.68583C9.22813 10.1435 8.91644 10.7267 8.79016 11.3615C8.66388 11.9964 8.72869 12.6544 8.97639 13.2524C9.2241 13.8504 9.64357 14.3616 10.1818 14.7212C10.72 15.0808 11.3527 15.2727 12 15.2727L12 14.1273C11.5793 14.1273 11.168 14.0025 10.8182 13.7688C10.4683 13.535 10.1957 13.2028 10.0347 12.8141C9.87365 12.4254 9.83152 11.9976 9.9136 11.585C9.99568 11.1723 10.1983 10.7933 10.4958 10.4958C10.7933 10.1983 11.1723 9.99568 11.585 9.9136C11.9976 9.83152 12.4254 9.87365 12.8141 10.0347C13.2028 10.1957 13.535 10.4683 13.7688 10.8182C14.0025 11.168 14.1273 11.5793 14.1273 12H15.2727Z"/>
</mask>
<path d="M15.2727 12C15.2727 11.3527 15.0808 10.72 14.7212 10.1818C14.3616 9.64357 13.8504 9.2241 13.2524 8.97639C12.6544 8.72869 11.9964 8.66388 11.3615 8.79016C10.7267 8.91644 10.1435 9.22813 9.68583 9.68583C9.22813 10.1435 8.91644 10.7267 8.79016 11.3615C8.66388 11.9964 8.72869 12.6544 8.97639 13.2524C9.2241 13.8504 9.64357 14.3616 10.1818 14.7212C10.72 15.0808 11.3527 15.2727 12 15.2727L12 14.1273C11.5793 14.1273 11.168 14.0025 10.8182 13.7688C10.4683 13.535 10.1957 13.2028 10.0347 12.8141C9.87365 12.4254 9.83152 11.9976 9.9136 11.585C9.99568 11.1723 10.1983 10.7933 10.4958 10.4958C10.7933 10.1983 11.1723 9.99568 11.585 9.9136C11.9976 9.83152 12.4254 9.87365 12.8141 10.0347C13.2028 10.1957 13.535 10.4683 13.7688 10.8182C14.0025 11.168 14.1273 11.5793 14.1273 12H15.2727Z" stroke="#FA7864" stroke-width="4" stroke-linejoin="round" mask="url(#path-3-inside-3_3_10)"/>
<mask id="path-4-inside-4_3_10" fill="white">
<path d="M19.6364 12C19.6364 10.8649 19.3833 9.7441 18.8956 8.71912C18.408 7.69413 17.6979 6.79076 16.8172 6.07472C15.9364 5.35869 14.9071 4.848 13.8042 4.57982C12.7012 4.31165 11.5524 4.29273 10.4412 4.52443L10.9868 7.14088C11.709 6.99027 12.4558 7.00257 13.1727 7.17689C13.8896 7.3512 14.5587 7.68315 15.1312 8.14857C15.7036 8.61399 16.1652 9.20119 16.4822 9.86743C16.7992 10.5337 16.9636 11.2622 16.9636 12H19.6364Z"/>
</mask>
<path d="M19.6364 12C19.6364 10.8649 19.3833 9.7441 18.8956 8.71912C18.408 7.69413 17.6979 6.79076 16.8172 6.07472C15.9364 5.35869 14.9071 4.848 13.8042 4.57982C12.7012 4.31165 11.5524 4.29273 10.4412 4.52443L10.9868 7.14088C11.709 6.99027 12.4558 7.00257 13.1727 7.17689C13.8896 7.3512 14.5587 7.68315 15.1312 8.14857C15.7036 8.61399 16.1652 9.20119 16.4822 9.86743C16.7992 10.5337 16.9636 11.2622 16.9636 12H19.6364Z" stroke="#FA7864" stroke-width="4" stroke-linejoin="round" mask="url(#path-4-inside-4_3_10)"/>
<mask id="path-5-inside-5_3_10" fill="white">
<path d="M24 12C24 9.62662 23.2962 7.30655 21.9776 5.33315C20.6591 3.35976 18.7849 1.82169 16.5922 0.913443C14.3995 0.00519249 11.9867 -0.232446 9.65891 0.230578C7.33113 0.693603 5.19294 1.83649 3.51471 3.51473L5.63225 5.63226C6.89167 4.37284 8.49627 3.51516 10.2431 3.16768C11.99 2.82021 13.8007 2.99854 15.4462 3.68014C17.0917 4.36173 18.4982 5.51597 19.4877 6.99689C20.4772 8.47781 21.0054 10.2189 21.0054 12H24Z"/>
</mask>
<path d="M24 12C24 9.62662 23.2962 7.30655 21.9776 5.33315C20.6591 3.35976 18.7849 1.82169 16.5922 0.913443C14.3995 0.00519249 11.9867 -0.232446 9.65891 0.230578C7.33113 0.693603 5.19294 1.83649 3.51471 3.51473L5.63225 5.63226C6.89167 4.37284 8.49627 3.51516 10.2431 3.16768C11.99 2.82021 13.8007 2.99854 15.4462 3.68014C17.0917 4.36173 18.4982 5.51597 19.4877 6.99689C20.4772 8.47781 21.0054 10.2189 21.0054 12H24Z" stroke="#6489FA" stroke-width="4" stroke-linejoin="round" mask="url(#path-5-inside-5_3_10)"/>
<mask id="path-6-inside-6_3_10" fill="white">
<path d="M11.003 4.429C10.0088 4.55993 9.05004 4.8854 8.18159 5.38685C7.31314 5.88829 6.55196 6.55587 5.94151 7.35148C5.33105 8.1471 4.88329 9.05516 4.62377 10.0238C4.36426 10.9925 4.29807 12.0028 4.429 12.997L7.07885 12.6481C6.99375 12.0018 7.03677 11.3451 7.20545 10.7155C7.37414 10.0859 7.66519 9.49561 8.06198 8.97846C8.45877 8.46132 8.95354 8.02739 9.51803 7.70145C10.0825 7.37551 10.7057 7.16395 11.3519 7.07885L11.003 4.429Z"/>
</mask>
<path d="M11.003 4.429C10.0088 4.55993 9.05004 4.8854 8.18159 5.38685C7.31314 5.88829 6.55196 6.55587 5.94151 7.35148C5.33105 8.1471 4.88329 9.05516 4.62377 10.0238C4.36426 10.9925 4.29807 12.0028 4.429 12.997L7.07885 12.6481C6.99375 12.0018 7.03677 11.3451 7.20545 10.7155C7.37414 10.0859 7.66519 9.49561 8.06198 8.97846C8.45877 8.46132 8.95354 8.02739 9.51803 7.70145C10.0825 7.37551 10.7057 7.16395 11.3519 7.07885L11.003 4.429Z" stroke="#6489FA" stroke-width="4" stroke-linejoin="round" mask="url(#path-6-inside-6_3_10)"/>
</svg>